<?xml version="1.0" standalone="no"?>
<!DOCTYPE svg PUBLIC "-//W3C//DTD SVG 20010904//EN"
 "http://www.w3.org/TR/2001/REC-SVG-20010904/DTD/svg10.dtd">
<svg version="1.0" xmlns="http://www.w3.org/2000/svg"
 width="256.000000pt" height="256.000000pt" viewBox="0 0 256.000000 256.000000"
 preserveAspectRatio="xMidYMid meet">

<g transform="translate(0.000000,256.000000) scale(0.100000,-0.100000)"
fill="#000000" stroke="none">
<path d="M1833 2111 c-73 -42 -135 -80 -139 -84 -9 -8 16 -67 28 -67 5 0 30
12 55 27 37 21 47 24 54 12 5 -8 28 -46 50 -86 l42 -72 38 20 c22 11 39 24 39
29 0 5 -20 44 -45 86 -25 41 -45 79 -45 83 0 4 22 20 49 35 l50 27 -21 34
c-11 19 -21 35 -21 34 -1 0 -62 -35 -134 -78z"/>
<path d="M1600 1969 c-13 -6 -64 -33 -112 -60 -59 -34 -86 -55 -81 -62 5 -7
37 -61 72 -120 35 -59 65 -107 67 -107 1 0 19 9 39 21 l35 21 -22 36 -21 35
22 18 c22 18 24 18 72 -7 l50 -25 41 25 41 24 -52 26 c-50 26 -51 27 -36 49 8
12 15 30 15 40 0 30 -27 72 -55 85 -30 14 -41 14 -75 1z m40 -94 c0 -21 -95
-76 -109 -62 -20 20 -12 33 40 60 52 27 69 27 69 2z"/>
<path d="M1290 1791 c-81 -25 -153 -84 -166 -138 -15 -56 34 -145 92 -169 67
-28 193 27 232 101 34 67 -1 164 -71 196 -46 20 -50 21 -87 10z m64 -103 c26
-36 20 -73 -15 -103 -40 -33 -84 -31 -112 7 -26 35 -17 70 25 97 43 27 83 27
102 -1z"/>
<path d="M1010 1629 c-19 -12 -36 -23 -38 -24 -2 -2 9 -22 23 -45 15 -23 23
-46 18 -50 -4 -4 -33 -21 -63 -38 l-56 -31 -24 44 c-14 25 -26 45 -29 45 -5 0
-71 -41 -71 -45 0 -2 129 -224 136 -233 4 -5 62 27 69 38 3 5 -6 27 -19 49
l-26 40 59 35 c32 20 61 36 64 36 3 0 14 -14 25 -32 l21 -32 -62 -69 c-131
-146 -247 -291 -247 -308 0 -12 -44 -43 -146 -101 -162 -92 -208 -130 -244
-204 -33 -68 -34 -179 -2 -245 60 -123 184 -186 324 -165 47 7 103 37 713 391
55 32 217 125 360 208 143 82 277 163 297 179 22 17 50 55 68 92 75 153 11
328 -145 397 -65 29 -163 30 -225 2 -43 -19 -579 -324 -815 -464 -40 -23 -40
-23 -25 -2 8 12 56 81 105 154 50 72 97 136 106 143 22 16 35 68 14 60 -15 -6
-28 13 -98 138 l-32 58 -35 -21z m550 -391 c11 -18 20 -36 20 -40 0 -4 -19
-17 -42 -29 -72 -36 -72 -31 -11 -135 30 -53 53 -97 51 -98 -2 -2 -23 -15 -47
-29 l-45 -26 -49 87 c-27 48 -53 91 -57 96 -5 4 -33 -6 -63 -23 l-55 -31 -21
35 c-12 20 -21 39 -21 43 0 7 298 179 313 181 4 1 16 -14 27 -31z m-351 -202
c12 -18 21 -36 21 -38 0 -3 -13 -11 -30 -18 -16 -7 -30 -16 -30 -21 0 -7 56
-107 66 -118 2 -2 15 4 28 13 14 9 29 16 33 16 10 0 48 -68 42 -74 -9 -7 -207
-116 -212 -116 -3 0 -14 16 -26 35 l-21 36 35 16 34 16 -31 56 c-42 75 -42 75
-71 56 -30 -19 -41 -15 -62 25 l-15 28 103 60 c56 34 105 61 109 61 3 1 16
-14 27 -33z m-339 15 c0 -12 -20 -25 -27 -18 -7 7 6 27 18 27 5 0 9 -4 9 -9z"/>
<path d="M651 1420 c-128 -46 -196 -150 -132 -202 33 -26 57 -23 135 18 76 38
113 40 80 2 -24 -27 -91 -57 -126 -58 -20 0 -27 -6 -30 -22 -2 -16 -14 -25
-42 -33 -103 -29 -116 -150 -18 -180 25 -7 124 18 161 42 16 10 37 13 62 10
36 -5 39 -3 39 18 0 13 5 27 10 30 23 14 7 23 -26 13 -20 -5 -37 -8 -38 -6 -1
2 -6 17 -13 35 -11 32 -10 33 38 64 27 17 58 43 69 57 42 52 13 132 -47 132
-16 0 -57 -14 -91 -30 -69 -33 -105 -39 -96 -16 7 19 96 66 125 66 37 0 47 12
42 48 -6 38 -22 40 -102 12z m25 -345 c9 -36 -14 -57 -81 -79 -65 -20 -92 -15
-101 21 -13 49 28 75 126 81 46 3 50 1 56 -23z"/>
</g>
</svg>
